<?xml version="1.0" encoding="UTF-8" standalone="no"?><svg xmlns="http://www.w3.org/2000/svg" xmlns:xlink="http://www.w3.org/1999/xlink" fill="#000000" height="170.4" preserveAspectRatio="xMidYMid meet" version="1" viewBox="-1.3 0.0 252.3 170.4" width="252.3" zoomAndPan="magnify"><g><linearGradient gradientUnits="userSpaceOnUse" id="a" x1="0" x2="246.099" xlink:actuate="onLoad" xlink:show="other" xlink:type="simple" y1="86.114" y2="86.114"><stop offset="0" stop-color="#ffde59"/><stop offset="1" stop-color="#ffffff"/></linearGradient><path d="M245.9,40.9c-1.7-20.7-18.8-37.2-39.5-38.3c-16-0.9-30.2,7.2-38,19.7c-3.9,6.2-11.6,8.8-18.6,6.5 c-5.4-1.8-11.3-2.8-17.3-2.8c-17.6,0-33.3,8.2-43.5,21.1c-5.9,7.5-15.5,10.9-24.9,9.4c-4.1-0.7-8.4-0.9-12.7-0.6 C23.5,57.8,1.3,80.7,0.1,108.6c-1.4,31.7,23.9,57.8,55.3,57.8c13,0,24.9-4.5,34.3-11.9c9.5-7.5,22.9-7.1,31.9,1 c10.5,9.4,24.6,14.9,40,14.1c28.3-1.5,51.2-24.7,52.3-53c0.1-3.3,0-6.4-0.4-9.6c-1.4-10.7,3.4-21.1,12.6-26.8 C239,72.3,247.3,57.5,245.9,40.9z" fill="url(#a)"/><circle cx="65.3" cy="39.3" fill="url(#a)" r="11.9"/><circle cx="130.2" cy="7.1" fill="url(#a)" r="7.1"/><circle cx="239.8" cy="103.3" fill="url(#a)" r="11.2"/></g></svg>