<?xml version="1.0" encoding="UTF-8"?><svg xmlns="http://www.w3.org/2000/svg" xmlns:xlink="http://www.w3.org/1999/xlink" height="566.9" preserveAspectRatio="xMidYMid meet" version="1.0" viewBox="-0.0 0.0 425.2 566.9" width="425.2" zoomAndPan="magnify"><g id="change1_1"><path d="m230.32 24.803c-19.569 0-35.438 15.868-35.438 35.438-19.569 0-35.438 15.868-35.438 35.438s15.868 35.406 35.438 35.406v70.875h-70.875c0-19.569-15.868-35.438-35.438-35.438s-35.406 15.868-35.406 35.438c-19.569 0-35.438 15.868-35.438 35.438s15.868 35.438 35.438 35.438c0 19.569 15.837 35.438 35.406 35.438s35.438-15.868 35.438-35.438h70.875v212.59c-19.569 0-35.438 15.868-35.438 35.438s15.868 35.438 35.438 35.438c0 19.569 15.868 35.438 35.438 35.438s35.438-15.868 35.438-35.438c19.569 0 35.438-15.868 35.438-35.438s-15.868-35.438-35.438-35.438v-212.59h70.844c0 19.569 15.868 35.438 35.438 35.438s35.438-15.868 35.438-35.438c19.569 0 35.438-15.868 35.438-35.438s-15.868-35.438-35.438-35.438c0-19.569-15.868-35.438-35.438-35.438s-35.438 15.868-35.438 35.438h-70.844v-70.875c19.569 0 35.438-15.837 35.438-35.406s-15.868-35.438-35.438-35.438c0-19.569-15.868-35.438-35.438-35.438z" fill="inherit" fill-rule="evenodd" transform="translate(-17.726 -24.803)"/></g></svg>