<?xml version="1.0" encoding="UTF-8" standalone="no"?><svg xmlns="http://www.w3.org/2000/svg" xmlns:xlink="http://www.w3.org/1999/xlink" fill="none" height="47.4" preserveAspectRatio="xMidYMid meet" style="fill: none" version="1" viewBox="0.3 3.6 62.1 47.4" width="62.1" zoomAndPan="magnify"><g id="change1_1"><path d="M40.7109 8.42183C45.7609 3.63823 50.5787 4.38699 55.1642 10.6681C59.7496 16.9492 61.0903 24.0937 59.1863 32.1017C57.2822 40.1096 53.0259 43.3558 46.4174 41.8402C39.8088 40.3247 34.4959 39.6455 30.4787 39.8027C26.4615 39.9599 19.8248 38.2446 10.5688 34.6569C1.31268 31.0691 0.252706 25.922 7.38882 19.2157C14.5249 12.5094 20.6001 10.2297 25.6144 12.3767C30.6287 14.5237 35.6608 13.2054 40.7109 8.42183Z" fill="#f8f0c4"/></g><g id="change1_2"><path d="M48.8488 14.2439C55.4663 12.1004 59.4924 14.8503 60.9271 22.4936C62.3618 30.1369 60.4961 37.1627 55.33 43.5708C50.1639 49.9789 44.9247 51.0765 39.6124 46.8635C34.3001 42.6506 29.7971 39.7503 26.1035 38.1627C22.41 36.5752 17.1583 32.1698 10.3485 24.9467C3.53868 17.7236 4.79782 12.6216 14.1259 9.64076C23.454 6.65991 29.9188 7.21775 33.5203 11.3143C37.1218 15.4108 42.2313 16.3874 48.8488 14.2439Z" fill="#f8f0c4" opacity="0.3"/></g></svg>