<?xml version="1.0" encoding="UTF-8" standalone="no"?><svg xmlns="http://www.w3.org/2000/svg" xmlns:xlink="http://www.w3.org/1999/xlink" fill="#000000" height="437.5" preserveAspectRatio="xMidYMid meet" version="1" viewBox="0.1 0.0 1920.0 437.5" width="1920" zoomAndPan="magnify"><g id="change1_1"><path d="m1326.1 262.84c-1.1161 0-1.5238 1.5645-0.6382 2.4502 0.6915 0.69143 1.7496-0.14425 1.7496-1.3822 0-0.58729-0.5001-1.068-1.1114-1.068zm-310.87-10.277c-0.1464 0.01-0.3046 0.019-0.4732 0.039-2.3185 0.27439-3.1513 1.8295-1.2099 2.259 1.8983 0.42004 3.1911-0.15265 3.1911-1.4125 0-0.64461-0.4834-0.9309-1.508-0.88569zm-120.01-1.2082c-0.54338 0-1.1269 0.41674-1.2967 0.92621-0.18366 0.55098 0.34161 0.9262 1.2967 0.9262 0.95502 0 1.4804-0.37522 1.2967-0.9262-0.16986-0.50947-0.75335-0.92621-1.2967-0.92621zm177.1-4.0754c-0.4075 0-0.7409 0.51957-0.7409 1.1549s0.3334 0.94942 0.7409 0.69753c0.4075-0.25178 0.741-0.77145 0.741-1.1549 0-0.38352-0.3335-0.69753-0.741-0.69753zm20.839-3.6138c-0.3719-0.038-0.7338 0.27298-1.2534 0.97692-0.5838 0.79116-1.0608 1.7081-1.0608 2.0377 0 1.0215 1.9917 0.65881 2.9901-0.54418 0.7485-0.9016 0.7567-1.3316 0.041-2.0377-0.2666-0.26279-0.4934-0.41054-0.7164-0.43274zm-257.93-2.8772c-0.29284-0.01-0.59109 0.095-0.84665 0.35031-0.85502 0.85499-0.3196 2.4357 0.82493 2.4357 0.35946 0 0.87666-0.36312 1.1505-0.80617 0.57271-0.9266-0.2503-1.9546-1.1288-1.9798zm66.639-0.85238c-0.20057 0.016-0.36292 0.076-0.47326 0.18676-1.0107 1.0107 0.25789 13.084 1.3748 13.084 0.36702 0 1.6536-0.72914 2.8597-1.6209 2.3404-1.7303 2.8768-4.6375 1.5153-8.2188-0.58479-1.5379-3.8729-3.5448-5.2766-3.4314zm-625.62-0.36322c-0.33537 0.032-0.48483 0.2933-0.48483 0.80036 0 1.5601 2.0709 2.6586 5.0624 2.686 1.6262 0.015 2.3671-0.287 2.168-0.8843-0.16635-0.49896-1.2783-1.1251-2.4704-1.3908-1.1921-0.26579-2.75-0.72684-3.4632-1.0246-0.3419-0.14295-0.61064-0.20597-0.8119-0.18666zm-245.18-0.50067c-0.08793 0.01-0.17028 0.027-0.24608 0.056-0.98906 0.37963-0.83175 0.75425 0.91037 2.1795 2.299 1.8808 3.2157 2.1752 3.2157 1.0333 0-1.321-2.5614-3.3981-3.88-3.2693zm1069.2-0.88869c-0.3049-0.01-0.8385 0.41394-1.5775 1.3155-1.0022 1.2226-1.8332 2.6398-1.8481 3.1491-0.049 1.7012 2.2227 0.95251 2.9552-0.97402 0.8537-2.2452 0.9785-3.4728 0.4704-3.4906zm-953.2-5.42c-1.5551 0.011-2.4155 2.0816-2.4155 5.9033 0 6.0785 0.93468 7.9862 2.8004 5.7122 1.1993-1.4618 1.4703-11.111 0.32278-11.494-0.25008-0.083-0.48557-0.12164-0.70771-0.12164zm763.16-0.97252c0.39673 0.043 0.6049 0.23428 0.6049 0.57609 0 0.35662-1.0419 0.85678-2.3156 1.1115-3.5432 0.70864-4.2172 0.45075-1.7598-0.67442 1.6234-0.74344 2.8092-1.085 3.4704-1.0131zm-857.15-0.43714c-0.92926-0.046-1.3898 0.6171-2.1535 2.0941-1.1339 2.1925-1.1165 2.2436 1.2779 3.7035 3.0407 1.854 3.6166 1.8485 6.0379-0.056 2.314-1.8202 2.065-2.4365-1.7801-4.3981-1.654-0.84378-2.6595-1.3074-3.3822-1.343zm-11.17-1.6092c-2.0421 0-2.2605 1.0982-0.43125 2.1636 1.7507 1.0196 2.1804 0.98092 2.6484-0.23878 0.52646-1.3718-0.1113-1.9248-2.2172-1.9248zm1846.5-2.1939c-0.4322 0.096-0.2269 1.2623 0.6889 2.9205 0.8248 1.4935 0.9158 1.5118 1.1824 0.23447 0.1589-0.76135-0.2426-1.9169-0.893-2.5674-0.4534-0.45345-0.7818-0.63121-0.9783-0.5875zm-731.05-227.55c0.3981-4.5015e-4 0.8921 0.048116 1.5196 0.1273 1.5361 0.19354 6.1276 0.54233 10.203 0.77425 3.5023 0.1994 7.6063 0.50891 10.048 0.74684l4.0073 0.2489 0.038 0.1997 0.9074 0.10566 0.4748 4.9105c0.2609 2.7008 0.6281 9.2207 0.8162 14.488 0.1993 5.5841 0.6702 9.7805 1.1289 10.064 0.4328 0.26739 6.0263 0.8983 12.43 1.4024 28.5 2.2431 40.445 3.2537 45.427 3.9466h0.012c0.01 0 0.01-7e-4 0.016 0 2.128 0.297 3.1113 0.54148 3.3489 0.79016 0.9459 0.98973 3.2244 15.629 3.2244 20.717 0 2.4451-0.4269 3.6571-1.7149 4.8671-2.1149 1.9869-4.9287 2.0439-25.908 0.52827-8.2409-0.5953-19.651-1.1789-25.357-1.2967l-10.374-0.21427 0.2287 14.449c0.1258 7.947 0.3653 16.617 0.5325 19.266 0.6102 9.6535 1.8564 41.93 2.9321 75.951 1.6061 50.788 2.5946 72.518 3.4372 75.57 0.9256 3.3516 6.1359 8.7657 7.912 8.2217 0.6924-0.21197 2.4261-0.074 3.8526 0.3068 11.647 3.1097 19.329 5.054 21.698 5.4909 2.6431 0.48736 2.849 0.38763 3.592-1.7439 0.5934-1.7022 1.2434-2.2621 2.6282-2.2621 1.4593 0 2.0816-0.61491 3.0088-2.9755 1.1259-2.8662 1.2655-2.9575 3.8294-2.5095 1.4971 0.26159 3.2379 1.2137 3.9785 2.1767 1.138 1.4798 1.6406 1.6196 3.7005 1.0289 1.3109-0.37603 3.251-0.68453 4.3114-0.68453 2.2652 0 4.3807-2.0602 4.3807-4.268 0-2.0695 2.8855-3.0403 4.1001-1.3792 0.9826 1.3438 2.9801 1.5931 3.6803 0.46026 0.9287-1.5028 2.5067-0.66662 3.8279 2.0276 1.1183 2.2804 1.971 2.9397 4.8309 3.7353 2.6472 0.73644 3.5273 1.3542 3.705 2.6022 0.1795 1.2624 0.9495 1.7885 3.3677 2.2968 3.6105 0.75875 5.7315-0.36802 5.1173-2.7165-0.2043-0.78126-0.067-3.2865 0.3039-5.5675 0.5612-3.4479 0.4713-4.3727-0.5354-5.485-0.666-0.73594-1.6155-1.3387-2.1086-1.3387-1.2045 0-4.8005-2.8749-4.8005-3.8381 0-0.81057 1.5838-0.54088 3.5675 0.38353 0.1121 0.048 0.2163 0.10513 0.3241 0.16065 0.9927 0.48776 2.0587 1.1129 3.0783 1.8626 2.6974 1.9837 2.9615 2.4878 3.1737 6.0509 0.2638 4.4285 1.4986 8.7182 2.5096 8.7182 0.3759 0 0.6845-0.41874 0.6845-0.93201 0-0.51337 0.6669-1.3507 1.482-1.8598 0.9992-0.624 1.482-1.7282 1.482-3.3894 0-3.2884 0.4439-3.5692 3.4097-2.1549 2.8094 1.3397 3.0198 1.8104 1.4066 3.1492-1.618 1.3428-1.3803 2.4303 1.0421 4.7513 1.9978 1.914 2.3067 1.9918 4.2346 1.0652 1.1436-0.54978 2.5911-2.0004 3.2172-3.223 0.6261-1.2227 1.2259-2.365 1.3329-2.5399s1.4408 0.2997 2.964 1.055c1.5232 0.75525 3.3808 1.2892 4.1289 1.1868 0.7482-0.10253 1.9713 0.36472 2.7165 1.039 0.7452 0.67442 1.9668 1.1325 2.715 1.0174 0.748-0.11504 2.1442 0.22347 3.1028 0.75104 0.9587 0.52738 2.4167 0.78286 3.2404 0.56739 1.636-0.42784 5.7615 2.1792 5.7615 3.6412 0 0.48476 0.5001 1.2959 1.1114 1.8033 0.8882 0.73724 1.3411 0.73234 2.2563-0.027 0.6298-0.52277 0.9756-1.3923 0.7684-1.932-0.5352-1.395 2.2893-2.6904 5.0002-2.2925 2.9881 0.43845 6.8702-1.2076 7.3723-3.1275 0.5462-2.0887 2.4755-1.8907 4.673 0.48056 1.5095 1.6286 2.6538 2.0517 6.2637 2.3127 3.1063 0.22478 4.417 0.62241 4.417 1.3415 0 1.8106 1.2916 1.0872 1.8149-1.0159 1.2213-4.9092 2.4544-121.89 1.3039-123.7-0.3916-0.6159-6.8539-1.1409-21.292-1.7295-11.401-0.46485-22.396-1.0754-24.434-1.3575l-3.7049-0.51377 0.1953-7.7601c0.1078-4.2685 0.4662-8.7619 0.7961-9.9845l0.5991-2.2229h2.1056c0.9911-0.17566 2.3661-0.12524 4.3491-0.12604 1.375 0 4.1582 0.074 7.4271 0.18096 5.6107 0.054 12.958 0.16415 19.354 0.3213l14.384 0.35462c0.1843-0.11064 0.3251-0.24258 0.4501-0.39373l0.3561-9.7514c0.2037-5.5849 0.7039-10.448 1.1114-10.808 0.846-0.74615 19.694 0.39033 20.57 1.2403 0.3097 0.3007 0.7409 5.0281 0.9581 10.505 0.2915 7.3496 0.6691 10.168 1.4429 10.759 0.5767 0.43994 7.3147 1.2084 14.973 1.7077 21.884 1.4269 30.159 2.2957 31.063 3.2636 0.7186 0.76936 2.498 11.869 2.498 15.582 0 0.68563-0.6857 1.9304-1.5225 2.7672-1.2288 1.2288-2.1194 1.439-4.6312 1.0941-5.7355-0.78736-40.661-2.6206-41.386-2.1723-0.8154 0.50406-0.7642 2.4453 1.8741 70.692 1.032 26.694 2.0896 49.701 2.3503 51.126s0.861 2.8372 1.333 3.1376c1.6141 1.027 4.3248 0.56918 5.5559-0.93781 0.981-1.2009 1.7304-1.4049 3.7035-1.0059 2.0956 0.42394 2.4246 0.76535 2.1448 2.2288-0.4564 2.388 1.6745 4.2038 4.1926 3.5718 2.1093-0.52937 3.4074-1.9318 2.1694-2.3446-1.8282-0.6093-3.3956-2.2171-2.6253-2.6933 0.4401-0.27199 2.0751 0.67522 3.6325 2.1057 1.5575 1.4305 3.0781 2.6052 3.3793 2.6052s0.3388-2.9503 0.082-6.559c-0.3413-4.8088-0.2233-6.7101 0.4428-7.1218 1.4217-0.87859 2.1906 0.42804 3.0594 5.197 0.4421 2.4263 1.027 4.6213 1.2996 4.8786 0.74 0.69803 10.859-1.0674 12.11-2.1129 0.865-0.72264 1.437-0.65862 2.8381 0.3227 1.0467 0.73324 3.5114 1.302 6.1074 1.4082 2.3937 0.098 4.8176 0.56398 5.3865 1.0362 0.6002 0.49806 1.4366 0.59819 1.9928 0.23877 0.5273-0.34081 2.6103-1.1513 4.6283-1.8018 2.018-0.65041 4.0186-1.8175 4.4459-2.5934 1.6476-2.9922 2.647-3.1232 5.2752-0.68743 1.0895 1.0097 3.0791 2.0421 4.4214 2.2939 1.3421 0.25178 3.1924 1.2604 4.113 2.2403 1.8499 1.9692 4.139 2.2329 7.8208 0.9016 2.0637-0.74624 2.6432-0.68993 3.815 0.37052 1.6849 1.5249 4.4989 1.6347 5.0508 0.19677 0.6741-1.7567 2.653-2.031 4.2954-0.5948 0.8536 0.74645 3.1494 1.7585 5.1014 2.249 3.1313 0.78676 3.8731 0.72434 6.2984-0.52247 9.3056-4.7843 8.8773-4.6496 13.318-4.1391 2.3385 0.26889 5.2862 0.84198 6.5515 1.2735 1.65 0.56298 2.9812 0.54778 4.705-0.053 1.6757-0.58439 2.8355-0.6065 3.8308-0.074 1.1124 0.59529 2.223 0.3304 5.0292-1.1969 2.9126-1.5853 3.891-1.8049 5.1189-1.1477 2.457 1.3148 5.1789 0.97963 6.1059-0.75254 0.7134-1.3329 1.2744-1.496 3.7787-1.0956 2.3117 0.36972 3.3494 0.15025 4.8468-1.0275 2.2978-1.8075 4.5635-1.9258 5.7527-0.2996 0.7575 1.0361 1.0969 1.0624 2.4921 0.19106 1.2913-0.80636 1.8744-0.82537 2.909-0.095 0.7118 0.50217 2.5457 1.5907 4.074 2.4183 1.5282 0.82767 2.7786 1.831 2.7786 2.2302 0 1.5387 4.5204 0.72234 6.2333-1.126 0.9443-1.0188 2.4051-1.8524 3.2461-1.8524 1.6064 0 3.8584 1.798 3.8584 3.0811 0 0.81307 4.5887 0.30811 8.6632-0.95371 1.7494-0.54178 2.5822-1.3921 3.2012-3.2679 0.6686-2.0259 1.389-2.6854 3.5791-3.2751 2.9978-0.80727 5.304-3.8004 5.304-6.8845 0-2.3746 2.1281-4.2187 5.4995-4.7658 2.0784-0.33731 2.9931-0.98453 3.883-2.7469 1.6693-3.3061 3.9933-5.6398 5.6153-5.6398 0.7707 0 2.053-0.34942 2.8495-0.77566 1.2202-0.65311 1.6463-0.42974 2.7078 1.4197 0.8174 1.4244 2.0471 2.3399 3.5038 2.6065 6.5118 1.1919 7.6631 1.2791 8.077 0.6094 0.5114-0.82747 6.0927 0.86608 7.8773 2.3908 3.5504 3.0333 8.4896 1.1431 13.297-5.0886 1.7509-2.2694 3.454-4.126 3.7845-4.126s0.8099-0.65871 1.0652-1.4632c0.8261-2.6032 4.7377-4.725 9.2102-4.9973 2.2739-0.13845 4.8595 0.13324 5.7455 0.6049 1.3247 0.70543 2.0585 0.58279 4.1275-0.69603 2.3243-1.4365 2.6424-1.4669 4.1767-0.39223 1.1272 0.78946 2.4558 1.0137 4.1333 0.69903 2.1181-0.39743 2.6846-0.17066 3.9611 1.5818 1.4064 1.9307 1.6317 1.995 4.019 1.1317 3.4915-1.2625 5.5554-1.1449 6.4011 0.36622 0.6704 1.198 0.8227 1.1859 2.3446-0.18526 0.8952-0.80666 1.9156-2.2162 2.2663-3.1332 0.5522-1.4439 1.1723-1.6672 4.6311-1.6672 2.8038 0 4.5279 0.41994 5.7862 1.4096 2.2505 1.7703 4.9414 1.3355 9.4548-1.5268 1.8267-1.1584 4.1823-2.1057 5.2346-2.1057 2.2487 0 5.2071-1.8786 5.2071-3.3069 0-0.63511 0.5407-0.85978 1.482-0.6137 1.5436 0.40373 1.7383-0.053 1.5167-3.5486-0.067-1.0514 0.3905-2.3362 1.0145-2.854 0.9966-0.82708 1.0044-1.1912 0.071-2.9957-1.3128-2.5387-1.0164-2.8479 3.2736-3.417 3.2232-0.42754 3.5106-0.65432 4.8064-3.7874 1.3004-3.1443 1.309-3.4788 0.1431-5.9236-1.2122-2.542-1.1929-2.6806 1.0436-7.4141 2.0083-4.2506 2.4742-4.7663 3.9119-4.3301 3.1154 0.94531 3.8522 0.78446 4.0913-0.8959 0.2683-1.8871 0.878-2.0835 2.3011-0.74094 0.7874 0.74285 1.0545 0.72454 1.3517-0.093 0.391-1.0756 1.287-1.9402 5.1738-4.9915 1.6367-1.2847 2.8794-1.7246 3.9264-1.3923 0.9053 0.2874 2.2637 0.01 3.3214-0.68743 2.299-1.5061 4.7074-1.4926 6.3968 0.036 1.2514 1.1325 1.3846 1.0806 2.1057-0.81617 0.5748-1.511 1.0964-1.8953 2.0566-1.511 0.7075 0.28319 4.9544 0.5969 9.4374 0.69623 6.1519 0.13624 8.6363-0.093 10.129-0.93501 1.7892-1.0087 2.1656-0.99082 3.9496 0.17806 1.0847 0.71073 2.4043 1.1258 2.9321 0.9233 0.5277-0.20246 1.8456 0.091 2.9277 0.65272 1.0822 0.56138 2.3731 0.87219 2.87 0.69033 1.3072-0.47846 2.2988 0.45715 3.1678 2.9886 0.585 1.7038 1.188 2.2028 2.5835 2.1361 1.0013-0.047 2.0574 0.28219 2.3458 0.73374 0.2887 0.45155 1.0483 0.82778 1.689 0.82778 0.6407 0.01 1.5805 0.84087 2.0869 1.8597 0.6274 1.2624 1.6402 1.9223 3.181 2.0739 2.0162 0.19836 2.4255 0.67962 3.786 4.446 1.1954 3.3093 1.8249 4.173 2.9089 3.99 4.157-0.70153 4.3476-0.6091 4.3476 2.0869 0 1.4265 0.3021 3.0599 0.67 3.6312 0.4521 0.70204 0.2721 1.3295-0.5557 1.9349-1.7988 1.3152-1.5879 1.6341 2.427 3.6687 2.0089 1.0179 3.8623 2.1912 4.1189 2.6065 0.2566 0.41523 1.1149 0.75544 1.906 0.75544 1.7727 0 1.9061 2.0876 0.2128 3.3257-1.0824 0.79156-0.958 0.98802 1.0651 1.6934 2.1825 0.76075 2.2795 0.96632 2.0652 4.3735-0.1237 1.966-0.4961 4.4014-0.8265 5.4126l-0.5108 1.5645c0.1182-0.01 0.2589-0.027 0.3937-0.044l1.5673-1.0261c1.6517-1.0822 3.2595-1.3007 8.2753-1.1274 4.1413 0.14314 6.5247-0.086 7.1204-0.68163 0.4925-0.49266 1.2722-0.89439 1.7309-0.89439 1.096 0 3.4876 2.7696 4.799 5.5574 0.5752 1.2226 1.4323 2.7231 1.9045 3.3344 0.4723 0.6113 1.077 2.0331 1.3446 3.1592 0.4129 1.7375 0.765 1.9772 2.3227 1.5862 1.3948-0.35011 1.8351-0.16915 1.8351 0.75395 0 0.66832-0.4694 1.3949-1.0434 1.6151s-1.4479 1.377-1.9421 2.5704c-0.7753 1.8716-1.2939 2.1709-3.773 2.1709-2.8131 0-3.7232 0.86809-2.016 1.9233 0.4715 0.2914 2.0304 0.48686 3.4647 0.43275 1.4342-0.054 3.055 0.27239 3.6021 0.72643 0.748 0.62081 1.3274 0.52488 2.3359-0.38782 0.7377-0.66752 1.9827-1.2156 2.7657-1.2156 2.5589-0.01 6.239-2.7849 6.239-4.7122 0-0.97502 0.5002-2.1874 1.1115-2.6948 0.6113-0.50727 1.1114-1.5372 1.1114-2.288 0-1.8166 2.058-2.8036 4.9337-2.3663 1.8337 0.27889 2.4166 0.06 2.6932-1.0144 0.01-0.039 0.021 0.64281 0.03 1.4704h0.4948v206.98h-1920v-203.88c0.69526 0.13384 2.0922 1.0746 2.3322 2.0913 0.54285 2.2994 3.2803 2.592 3.4401 0.36762 0.058519-0.81507 0.14227-1.8988 0.18524-2.4082 0.10841-1.2747 1.9236-1.1642 3.0435 0.18516 0.50735 0.6114 1.9178 1.1116 3.1347 1.1116 1.9617 0 2.1618 0.19977 1.7685 1.7671-0.57249 2.2808 1.0876 3.8102 3.003 2.7656 0.74514-0.40623 2.2177-0.918 3.2722-1.1376 2.1184-0.44095 5.8642-3.114 5.8642-4.1854 0-0.37552-2.8343-2.5122-6.2984-4.747-5.7841-3.7313-7.9174-6.3186-5.2086-6.3186 0.59961 0 3.8206 0.99623 7.1581 2.2143 5.5369 2.0207 6.431 2.1492 10.21 1.4675 2.2779-0.41093 6.9748-1.078 10.437-1.482 3.4627-0.40394 6.9033-0.92751 7.6472-1.1636 0.74388-0.23607 1.9123 0.058 2.5963 0.65412 0.68394 0.59569 3.0786 1.675 5.32 2.3981 2.2415 0.72304 4.4474 1.4506 4.9032 1.618 0.45585 0.16745 1.0176-0.41464 1.2475-1.2938 0.22986-0.87909 0.74098-1.3978 1.1361-1.1535 0.39517 0.24418 2.9725 3.7854 5.7267 7.8701 3.2393 4.8039 5.6066 7.5771 6.705 7.8527 0.93387 0.23447 3.2981-0.09 5.2535-0.72214 1.9555-0.63181 6.0143-1.3784 9.0206-1.6586 4.5877-0.42764 5.8644-0.85878 7.9439-2.6847 2.8884-2.536 4.0045-2.1957 4.0045 1.2229 0 2.4268 2.5877 9.3018 3.799 10.092 0.34411 0.22438 2.215 0.2958 4.1564 0.15915 1.9414-0.13654 6.3641-0.42494 9.8282-0.64111 3.4641-0.21607 7.0314-0.75194 7.9279-1.191 1.1923-0.58389 2.2159-0.55618 3.8135 0.10554 1.8174 0.75284 2.577 0.70163 4.5241-0.3053l2.3402-1.2099-0.51091-5.1927c-0.36153-3.6692-0.23327-5.7142 0.4371-6.9669 1.1695-2.1852 6.945-4.3579 8.86-3.3331 1.6169 0.86539 3.316 6.707 2.7599 9.4881-0.61361 3.0677 0.41814 4.351 2.6716 3.3243 0.99493-0.45335 3.4367-1.0596 5.4256-1.3474 1.9889-0.28769 5.9508-1.464 8.8036-2.6138 7.6166-3.0699 14.457-3.7585 40.384-4.0652 22.421-0.26519 24.318-0.13965 29.269 1.9219 0.81509 0.33941 3.4816 0.84017 5.9265 1.1129 2.4448 0.27289 5.4458 1.0144 6.6689 1.6484 3.0173 1.564 7.1912 2.4473 8.1262 1.7193 0.42148-0.32811 2.2766-0.79326 4.1231-1.0332 1.8466-0.24008 4.8476-1.1132 6.6689-1.9393 3.601-1.6334 11.63-2.0928 14.04-0.80326 0.75187 0.40243 2.1139 1.9415 3.0276 3.4199 1.9489 3.1533 5.2656 4.7411 9.9063 4.7411 1.8328 0 4.8431 0.51227 6.6892 1.139 3.5035 1.1895 5.106 0.85528 7.035-1.4689 1.4033-1.6909 3.6776-1.4103 4.4213 0.54558 1.1926 3.1368 2.6447 3.7249 8.0365 3.2563 2.7444-0.23858 8.4912-0.061 12.77 0.39513 6.7113 0.71533 8.1367 0.66922 10.374-0.33872 1.4264-0.64261 5.4129-1.3802 8.86-1.6382 3.4471-0.25809 8.7624-1.122 11.811-1.9204 3.0485-0.79846 6.563-1.4528 7.8107-1.4531 1.2478-4e-4 4.7264-0.51357 7.7312-1.1404 5.9841-1.2485 22.665-1.0045 25.231 0.36902 0.89408 0.47846 4.4258 0.51287 9.9989 0.097 5.4677-0.40813 9.6258-0.37362 11.378 0.093 4.774 1.2703 7.8086 1.4462 12.384 0.71783 2.4395-0.38833 5.1121-0.44915 5.9394-0.13464 1.6729 0.63611 13.87-0.17946 20.748-1.3879 2.4452-0.42954 14.949-0.9245 27.787-1.0985 24.814-0.33641 36.741 0.56639 39.41 2.9814 1.1101 1.0046 1.7751 1.0267 5.1984 0.17946 0.51787-0.12824 1.1771-0.24408 1.919-0.34591 0.18717-0.23138 0.36923-0.46746 0.5384-0.71354 2.2465-0.3102 5.6639-0.48826 8.4533-0.40953l6.2448 0.17515 0.67296-2.5934c0.7578-2.9194 2.5044-5.1869 3.9958-5.1869 1.2815 0 1.2554 0.68293-0.15777 4.0652-0.63516 1.5202-0.96779 2.9527-0.73809 3.1824 0.22979 0.22977 2.5385 0.026 5.1304-0.45155 2.592-0.47756 5.6026-0.86829 6.6892-0.86829 5.1759 0 1.7478-4.7806-3.9987-5.5762-4.7022-0.65101-5.219-0.88839-4.7252-2.1752 0.29225-0.76155 1.416-1.1404 3.3894-1.1404 3.1244 0 5.4733 1.3875 9.7399 5.7498l2.3619 2.414 12.215-0.76555c17.594-1.1026 29.475-2.1064 33.558-2.835 1.9579-0.34991 9.9754-0.47336 17.815-0.27649 11.883 0.2983 14.621 0.16765 16.459-0.78296 1.2236-0.63281 3.107-0.96872 4.2303-0.75405 1.2275 0.23468 2.0247 0.062 2.0247-0.43994 0-0.45495-0.66689-0.82777-1.482-0.82777-1.1561 0-1.482-0.49397-1.482-2.2461 0-2.5581 1.6442-3.6016 3.3909-2.152 0.72743 0.6036 0.99122 1.5865 0.7178 2.6759-0.23771 0.94721-0.11626 1.7223 0.27068 1.7223s0.81041 0.75024 0.94068 1.6672c0.32833 2.3121 4.9018 2.916 14.054 1.8538 7.7762-0.90239 12.4-0.29799 19.415 2.5399 3.4914 1.4125 3.7643 1.4177 9.6328 0.17076 4.5422-0.96512 10.083-1.3134 22.342-1.4053 8.9659-0.067 16.885-0.38222 17.598-0.70043 1.9098-0.85208 1.5836-2.3874-0.89725-4.2216-2.3789-1.7588-2.2742-3.2406 0.18376-2.5978 0.9077 0.23728 1.865-0.062 2.359-0.73664 0.70817-0.96852 1.2961-0.63411 3.9669 2.2634 2.3658 2.5666 3.2407 3.127 3.566 2.2794 0.46852-1.221-1.049-3.9159-3.482-6.1825-2.1511-2.004-1.7973-7.051 0.51669-7.3809 1.0051-0.14335 2.1372 0.48186 3.1072 1.715 1.2652 1.6084 1.7798 1.8059 3.0016 1.1521 2.2184-1.1873 2.4197-1.0082 1.9118 1.699-0.45978 2.4512-0.4197 2.4958 2.6528 2.9872 6.3828 1.0205 7.694 3.4154 1.8698 3.4154-1.8329 0-3.5669 0.44144-4.0581 1.0333-0.7078 0.85278-0.13398 1.1585 3.2809 1.7468 2.2759 0.39203 5.3719 0.49447 6.8801 0.22728 4.8105-0.85248 18.331 0.98102 20.351 2.7599 0.95254 0.83857 3.1756 1.1889 8.1841 1.2894 3.7818 0.076 8.0275 0.49056 9.436 0.9218 1.4085 0.43135 5.7977 0.95212 9.7543 1.1579l7.1942 0.37483-0.39798-1.9914c-0.34152-1.7076 0.0422-2.2808 2.6904-4.0147 1.699-1.1124 3.3202-2.0232 3.6021-2.0232 0.28202 0 0.94342 1.5838 1.4704 3.5196 1.5777 5.795 2.1712 6.7892 4.3417 7.2723 1.1345 0.25258 4.0163 1.107 6.4026 1.8988 3.4894 1.158 4.5542 1.2615 5.443 0.52387 0.89717-0.74464 1.2387-0.67982 1.8119 0.34452 0.38835 0.69392 1.5224 1.2605 2.521 1.2605 1.5404 0 1.8163-0.35101 1.8163-2.32 0-3.2229-3.8648-6.6816-11.765-10.529-5.9049-2.8754-8.4508-4.9737-7.3592-6.0653 0.25342-0.25328 1.4088 0.025 2.5674 0.6209 1.1586 0.5951 4.2556 1.6302 6.8816 2.2997 2.626 0.66932 5.898 2.0748 7.2723 3.123 1.3744 1.0482 2.6226 1.7829 2.7729 1.6325 0.41873-0.41863 1.8525-76.987 1.8525-98.932 0-13.724-0.2486-19.568-0.84517-19.937-0.46423-0.2869-11.051-0.96962-23.526-1.5181-12.475-0.54858-23.476-1.1852-24.447-1.414l-1.7656-0.41543 0.52825-8.5936c0.29105-4.7262 0.84339-9.4191 1.2272-10.429l0.69757-1.8351 17.953 0.64251c9.8734 0.35382 20.619 0.64981 23.879 0.64981l5.6963 0.01c0.0422-0.02501 0.0876-0.05002 0.11581-0.07803 0.0422-0.04201 0.0844-0.11884 0.1259-0.20987l0.36034-9.8657c0.20214-5.5396 0.69563-10.379 1.1013-10.825l0.0104-0.26199 1.1925 0.04201c3.67-0.22157 14.652 0.43674 18.189 1.0957l0.81768 0.07402 0.0185 0.13164c0.11975 0.04201 0.21259 0.08403 0.25038 0.12594 0.77737 0.85288 1.9354 12.893 1.5876 16.506-0.34693 3.6032-0.2892 4.8305 4.7166 5.5718 0.83347 0.10263 1.7849 0.20917 2.8438 0.31981 2.1556 0.20467 4.7889 0.39303 8.2825 0.6209 20.712 1.3506 30.081 2.2804 31.046 3.0812 1.3123 1.089 2.8814 15.77 1.8843 17.633-1.3868 2.5914-1.7121 2.6004-30.252 0.86688-8.2473-0.50076-15.546-0.69893-16.221-0.44004-1.0636 0.40813-1.159 1.2792-0.71491 6.5662 0.28166 3.3528 0.66422 11.431 0.84947 17.952 0.4883 17.192 1.6847 47.324 2.5746 64.836 0.42474 8.3546 0.84458 18.358 0.93209 22.23l0.15913 7.0394 2.0378 0.23438c2.4301 0.27969 2.578 1.472 0.51087 4.1-1.9894 2.529-2.2634 5.8876-0.51087 6.2506 0.72394 0.14995 1.2966-0.17025 1.2966-0.72503 0-0.54668 0.83367-2.2215 1.8525-3.7208 1.0862-1.5985 1.8525-3.7774 1.8525-5.268 0-3.1587 1.5152-4.6352 3.6079-3.5153 2.23 1.1935 3.8943 0.96352 5.7687-0.79746l1.6919-1.5905 0.76415 2.0088c0.41993 1.1047 0.76405 2.6648 0.76405 3.4661 0 2.0453 1.8925 2.5373 4.1262 1.0738 2.255-1.4775 3.6424-1.1852 3.6499 0.76695 0.01 2.0142 4.6174 2.4858 5.3084 0.54278 0.87719-2.4664 2.6842-3.9379 4.8367-3.9379 1.3832 0 2.2726 0.45515 2.5326 1.2967 0.85718 2.7741 1.6621 3.5294 4.7078 4.4112 1.736 0.50257 3.5959 1.2775 4.1319 1.7223 1.2782 1.0608 6.2631 0.12844 6.8005-1.2721 0.34911-0.9098 0.051-1.8062-1.8408-5.5386-0.13744-0.27109 0.41374-0.70473 1.2258-0.96242 1.886-0.59859 4.5341 1.0343 4.5341 2.7961 0 2.3545 3.2876 1.2892 3.5689-1.1564 0.24068-2.0914 1.618-2.902 1.618-0.95231 0 0.597 0.63151 1.4233 1.4039 1.8366 2.1766 1.1649 3.2451-0.68742 2.6572-4.6081-0.37812-2.5217-0.21067-3.5407 0.74094-4.4922 2.7232-2.7233 6.2913-0.65952 4.7412 2.7425-0.75915 1.6662-0.56178 2.5514 1.5065 6.7528 1.309 2.6591 2.7035 4.8338 3.0986 4.8338 0.39503 0 1.8835-0.48646 3.3069-1.0812 2.7796-1.1614 4.7745-0.84918 4.7745 0.74674 0 1.1682 0.42244 1.447 3.1998 2.1116 1.7345 0.41514 2.0546 0.27559 1.89-0.82347-0.10894-0.72804 0.36872-2.3905 1.0608-3.6948 0.69213-1.3042 1.2591-2.8687 1.2591-3.4762s0.32121-1.3038 0.71494-1.5471c0.44825-0.27709 0.55348 1.2995 0.28079 4.2202l-0.43564 4.6629 2.6788 0.96972c1.4737 0.53278 3.0071 0.76655 3.4068 0.51947s1.7385 0.64912 2.9755 1.9914l2.0508 2.2244c0.14675-0.01 0.2939-0.034 0.44285-0.08l1.4791-1.7874c1.3361-1.6148 2.1314-1.9794 3.5429-1.6252 1.3528 0.33951 2.5505-0.12424 4.6687-1.8076 1.5674-1.2455 2.9398-2.265 3.0493-2.265 0.1097 0-0.1492 1.1378-0.5759 2.5283-1.1469 3.7368-0.4085 4.8815 3.1506 4.8815 3.4267 0 7.3968 1.7582 7.3968 3.2751 0 1.047 1.5443 1.9118 3.4127 1.9118 0.588 0 1.4025-0.87668 1.8103-1.9493 0.6939-1.8251 0.8278-1.8726 2.0783-0.74104 2.8719 2.599 5.2955 0.93761 5.2955-3.6297 0-2.6712 0.2057-3.0512 1.6208-3.0001 1.1396 0.041 1.7546-0.49216 2.071-1.7946 0.2895-1.1907 0.9677-1.8524 1.8988-1.8524 1.1265 0 1.3855 0.41153 1.165 1.8524-0.7552 4.9362-0.5657 5.5474 1.7975 5.7788 1.8777 0.18386 2.6683-0.2939 4.7209-2.8481 2.2018-2.7398 2.3462-3.188 1.3445-4.1898s-0.9912-1.3502 0.095-3.2606c1.6927-2.9757 2.7889-2.6971 2.4762 0.62951-0.3366 3.5807 0.9148 6.8542 2.6195 6.8542 0.7271 0 1.7386 0.66682 2.2475 1.4819 0.9786 1.5668 3.1363 2.0357 3.1363 0.68172 0-0.50106 0.8201-0.6191 2.1954-0.317 1.9323 0.42444 2.2545 0.24698 2.6876-1.4776 0.2791-1.1128 1.2659-2.2537 2.285-2.6412 1.063-0.40414 2.2442-1.8173 2.8975-3.4661 0.6066-1.5309 1.4685-3.6167 1.9161-4.6355l0.8148-1.8525 0.9566 2.223c0.5658 1.3152 0.7861 3.5089 0.5399 5.3721-0.3406 2.5754-0.1988 3.1492 0.7785 3.1492 0.6573 0 1.7693-0.91701 2.4704-2.0378 0.7012-1.1207 1.3498-2.1499 1.4415-2.288 0.092-0.13814 1.3823 1.0948 2.8683 2.7397 2.4106 2.6683 2.8919 2.9041 4.4663 2.1867 2.0208-0.9206 3.3214-4.0436 3.3214-7.9786 0-2.9707 1.5433-5.7255 2.7801-4.9611 0.4539 0.28059 0.6155 1.7291 0.385 3.4473-0.6333 4.7214 1.728 3.8163 2.7294-1.0463 0.399-1.9369 0.767-2.2533 2.4039-2.0594 1.0633 0.12584 2.1516-0.12424 2.4183-0.55578 0.2668-0.43165 1.5129-0.78436 2.7701-0.78436h2.2866l-0.4935 5.909c-0.271 3.2495-0.6875 6.4172-0.9263 7.0393-0.8469 2.2071 1.2796 1.09 2.786-1.4632 1.677-2.8421 2.4738-3.2028 3.1535-1.4313 0.2906 0.75714 1.1562 1.0794 2.4878 0.9262 1.6554-0.19036 2.0874-0.65672 2.2838-2.4588 0.3853-3.5353 1.3929-3.8961 3.6514-1.3083 1.1183 1.2817 2.7016 2.4333 3.5167 2.5602 0.8251 0.12854 1.9393 1.2729 2.5152 2.5804 1.3009 2.9529 5.826 4.8148 12.617 5.1942 2.6589 0.14845 5.1382 0.57499 5.5096 0.94641 0.4065 0.40653 1.4125 0.19186 2.5269-0.53838 1.0185-0.66732 2.7731-1.1423 3.9003-1.0564 1.6987 0.12944 2.2015-0.25809 2.9364-2.2592 1.2656-3.4464 2.0173-37.918 2.5819-118.46 0.4269-60.892 0.3527-68.753-0.6484-69.754-0.9133-0.9133-4.3439-1.2201-18.015-1.6108-9.2884-0.26539-23.723-0.88689-32.078-1.3806l-15.19-0.8974-0.2417-4.0753c-0.2334-3.9558 1.0289-19.326 1.8786-22.875l0.421-1.7569 15.273 0.39657c8.3999 0.21785 22.415 0.80026 31.145 1.2952 14.908 0.84539 15.929 0.82108 16.827-0.40665 0.6904-0.94416 0.9478-4.622 0.9234-13.247-0.018-6.7641 0.3079-12.828 0.7555-13.989 0.5323-1.3808 0.8695-1.8249 2.0638-1.8249z" fill="#535351"/></g></svg>