<?xml version="1.0" encoding="UTF-8"?><svg xmlns="http://www.w3.org/2000/svg" xmlns:xlink="http://www.w3.org/1999/xlink" height="677.9" preserveAspectRatio="xMidYMid meet" version="1.0" viewBox="0.0 0.0 504.8 677.9" width="504.8" zoomAndPan="magnify"><g id="change1_1"><path d="M1291.361,2731.491 C1293.094,2736.752 1295.242,2741.917 1294.481,2747.553 C1293.357,2754.118 1291.402,2760.541 1289.802,2767.023 C1287.109,2777.921 1284.424,2788.821 1281.702,2799.712 C1281.194,2801.747 1280.464,2803.726 1279.946,2805.76 C1279.193,2808.716 1278.572,2811.705 1277.835,2814.665 C1277.24,2817.056 1276.51,2819.414 1275.92,2821.806 C1274.969,2825.667 1274.128,2829.556 1273.154,2833.411 C1272.503,2835.993 1271.697,2838.537 1270.969,2841.101 C1270.446,2842.941 1269.819,2844.763 1269.445,2846.634 C1268.024,2853.737 1266.567,2860.836 1265.363,2867.978 C1264.666,2872.107 1264.618,2876.348 1263.911,2880.475 C1263.472,2883.036 1262.037,2885.43 1261.631,2887.991 C1261.327,2889.903 1261.956,2891.964 1262.067,2893.003 C1261.654,2896.533 1261.483,2899.226 1261.001,2901.863 C1260.216,2906.153 1259.119,2910.386 1258.368,2914.681 C1258.082,2916.726 1258.145,2915.991 1258.074,2916.875 C1264.943,2915.678 1261.371,2916.412 1268.776,2914.61 C1270.601,2914.115 1272.917,2913.772 1274.001,2912.502 C1280.153,2905.297 1288.691,2904.471 1297.12,2903.511 C1302.239,2902.929 1307.446,2903.144 1312.595,2902.756 C1315.486,2902.539 1318.324,2901.597 1321.216,2901.392 C1324.733,2901.143 1328.289,2901.472 1331.814,2901.287 C1338.897,2900.917 1345.965,2900.266 1353.049,2899.981 C1354.533,2899.923 1356.06,2900.95 1359.172,2902.038 C1353.057,2902.841 1348.881,2903.392 1344.703,2903.941 C1344.66,2904.613 1344.62,2905.283 1344.577,2905.955 C1347.094,2906.35 1349.608,2907.076 1352.126,2907.09 C1371.022,2907.198 1389.92,2907.181 1408.821,2907.151 C1410.438,2907.147 1412.349,2907.249 1413.626,2906.476 C1418.805,2903.354 1422.513,2906.273 1426.2,2909.201 C1430.002,2912.218 1433.709,2915.364 1437.341,2918.585 C1438.876,2919.947 1441.028,2921.361 1438.968,2924.158 C1434.389,2924.916 1428.938,2921.427 1424.341,2926.298 C1427.814,2928.824 1430.689,2931.233 1433.867,2933.139 C1437.25,2935.167 1437.394,2937.691 1435.883,2940.8 C1435.172,2942.262 1434.36,2943.677 1433.652,2945.003 C1430.419,2945.383 1427.295,2945.303 1424.495,2946.216 C1422.044,2947.017 1419.558,2948.562 1417.796,2950.443 C1414.882,2953.554 1416.17,2955.971 1420.694,2956.849 C1422.017,2957.105 1423.27,2957.73 1426.223,2958.778 C1417.8,2961.568 1410.3,2956.103 1404.139,2961.376 C1403.985,2971.551 1403.98,2971.526 1393.669,2973.356 C1391.516,2973.737 1389.42,2974.431 1387.276,2974.886 C1383.798,2975.622 1380.297,2976.885 1376.814,2976.859 C1365.33,2976.768 1353.852,2976.19 1342.37,2975.819 C1338.536,2975.695 1334.694,2975.486 1330.86,2975.569 C1322.39,2975.753 1313.855,2976.908 1305.473,2976.197 C1291.495,2975.011 1277.657,2974.448 1263.696,2976.408 C1253.402,2977.558 1259.505,2976.977 1245.363,2977.883 L1245.219,2978.35 C1247.56,2979.743 1249.5,2980.897 1251.75,2982.236 C1251.002,2983.436 1250.481,2984.385 1249.855,2985.26 C1246.069,2990.559 1244.879,2996.603 1244.305,3002.954 C1243.932,3007.07 1243.475,3011.4 1241.894,3015.143 C1238.326,3023.592 1237.125,3032.374 1236.425,3041.365 C1235.963,3047.292 1235.081,3053.187 1234.349,3059.092 C1233.552,3065.521 1232.435,3071.856 1233.344,3078.46 C1233.845,3082.101 1232.571,3085.959 1232.322,3089.734 C1231.688,3099.296 1228.682,3108.531 1228.568,3118.175 C1228.522,3122.136 1227.892,3126.091 1227.507,3130.259 C1229.172,3131.11 1230.621,3131.851 1231.738,3132.423 C1230.762,3136.505 1229.617,3140.393 1228.94,3144.361 C1228.157,3148.953 1227.239,3153.367 1224.065,3157.046 C1217.018,3165.217 1217.024,3175.472 1220.354,3185.359 C1218.283,3187.483 1217.019,3190.049 1217.905,3193.429 C1218.428,3195.426 1217.175,3197.251 1216.546,3199.173 C1215.083,3203.636 1214.856,3208.517 1214.265,3213.246 C1214.03,3215.132 1214.522,3217.163 1214.041,3218.954 C1212.812,3223.523 1213.409,3227.949 1214.189,3232.247 C1217.17,3234.578 1218.153,3230.687 1220.525,3230.544 C1221.101,3233.009 1220.499,3235.018 1219.015,3236.94 C1218.116,3238.105 1217.397,3239.433 1216.742,3240.759 C1214.78,3244.735 1213.454,3248.712 1215.06,3253.308 C1215.525,3254.638 1214.48,3256.598 1213.89,3258.18 C1211.484,3264.625 1214.535,3270.933 1214.296,3277.331 C1214.168,3280.738 1214.623,3284.173 1214.912,3287.587 C1215.818,3298.229 1216.77,3308.867 1217.706,3319.507 C1218.075,3323.693 1218.513,3327.876 1218.782,3332.068 C1218.862,3333.325 1218.525,3334.621 1218.29,3335.882 C1218.091,3336.949 1217.34,3338.095 1217.564,3339.03 C1218.486,3342.865 1218.204,3345.643 1214.494,3348.414 C1211.456,3350.683 1211.411,3354.861 1213.981,3358.631 C1212.783,3359.315 1211.849,3359.848 1210.502,3360.616 C1210.948,3362.265 1211.43,3364.048 1211.956,3365.997 C1210.782,3367.578 1209.543,3369.248 1208.409,3370.776 C1204.467,3370.179 1200.745,3369.487 1196.991,3369.082 C1192.638,3368.613 1189.409,3371.236 1188.721,3375.577 C1188.548,3376.667 1188.557,3377.784 1188.45,3379.378 C1183.827,3377.795 1180.393,3378.484 1176.989,3381.98 C1175.465,3383.545 1171.909,3384.475 1168.697,3382.378 C1164.883,3379.891 1160.564,3378.102 1156.312,3376.385 C1152.48,3374.839 1150.752,3376.005 1149.808,3379.93 C1149.556,3380.974 1149.082,3382.006 1148.515,3382.923 C1145.74,3387.401 1141.893,3391.471 1144.066,3397.552 C1144.391,3398.461 1143.589,3400.409 1142.721,3400.975 C1141.014,3402.087 1139.753,3403.136 1139.423,3405.29 C1139.334,3405.868 1138.033,3406.331 1137.226,3406.716 C1135.524,3407.526 1133.781,3408.249 1131.209,3409.381 C1129.817,3408.158 1127.891,3406.678 1126.222,3404.95 C1124.329,3402.906 1122.026,3401.401 1119.162,3401.409 C1117.572,3385.993 1113.413,3371.034 1108.623,3356.347 C1108.205,3355.653 1108.503,3356.003 1107.599,3355.422 C1107.785,3351.749 1108.466,3348.133 1108.992,3344.5 C1110.964,3344.338 1112.745,3344.192 1114.759,3344.027 C1114.356,3335.568 1113.817,3327.357 1113.62,3319.138 C1113.469,3312.835 1113.756,3306.522 1113.831,3300.214 C1113.84,3299.462 1113.941,3298.616 1113.65,3297.972 C1109.9,3289.7 1112.082,3281.304 1113.232,3272.99 C1113.964,3267.701 1115.096,3262.432 1116.542,3257.293 C1117.137,3255.182 1119.029,3253.436 1120.713,3250.962 C1121.566,3246.958 1122.547,3242.15 1123.625,3237.365 C1124.248,3234.604 1124.751,3231.765 1125.803,3229.161 C1127.425,3225.15 1126.521,3221.778 1124.324,3218.334 C1123.734,3217.409 1123.8,3215.83 1124.04,3214.648 C1125.323,3208.301 1126.709,3201.972 1128.157,3195.66 C1129.051,3191.759 1130.362,3187.94 1131.052,3184.009 C1131.938,3178.967 1132.368,3173.845 1133.046,3168.765 C1133.169,3167.845 1133.258,3166.509 1133.85,3166.13 C1137.556,3163.759 1137.112,3159.724 1138.463,3156.323 C1141.181,3149.483 1141.364,3142.61 1141.248,3135.537 C1141.219,3133.842 1141.66,3132.135 1141.926,3130.44 C1142.135,3129.111 1142.911,3127.64 1142.566,3126.495 C1140.66,3120.165 1143.191,3114.577 1144.913,3108.758 C1145.709,3106.065 1145.445,3103.067 1145.72,3100.212 C1146.961,3087.288 1147.994,3074.355 1147.526,3061.528 C1147.066,3061.093 1146.836,3060.706 1146.513,3060.596 C1140.014,3058.385 1140.38,3058.351 1139.654,3051.659 C1138.596,3041.912 1137.767,3032.213 1138.763,3022.41 C1138.866,3021.396 1137.881,3019.749 1136.951,3019.268 C1135.217,3018.372 1134.39,3019.88 1133.495,3021.287 C1131.365,3024.639 1131.256,3028.501 1130.168,3032.094 C1129.816,3033.608 1129.962,3032.76 1129.803,3034.649 C1128.045,3032.152 1125.789,3030.105 1123.541,3028.068 C1125.6,3007.969 1124.477,3018.656 1126.932,2996.008 L1126.985,2995.573 C1116.661,2997.109 1121.087,2996.231 1113.649,2997.903 C1102.075,3001.109 1090.684,3004.969 1079.224,3008.576 C1072.701,3010.631 1066.268,3013.02 1059.658,3014.734 C1047.585,3017.864 1034.548,3017.181 1023.375,3023.95 C1022.738,3024.335 1021.779,3024.215 1020.964,3024.279 C1010.236,3025.103 999.768,3026.939 990.062,3031.939 C988.625,3032.678 986.939,3032.974 985.335,3033.335 C973.848,3035.912 962.386,3038.625 950.844,3040.925 C945.915,3041.907 940.654,3042.927 936.23,3038.794 C937.048,3033.017 941.628,3031.066 945.601,3028.947 C951.529,3025.787 957.785,3023.254 963.832,3020.307 C964.924,3019.775 965.675,3018.548 966.533,3017.694 C965.034,3015.806 963.906,3014.385 961.667,3011.567 C965.102,3011.482 967.073,3011.638 968.965,3011.33 C970.912,3011.01 973.391,3010.807 974.573,3009.552 C977.597,3006.333 971.134,3006.956 972.439,3002.844 C978.645,3000.6 985.676,2998.058 993.712,2995.149 C993.449,2995.614 993.963,2994.946 994.232,2994.19 C996.508,2987.82 998.169,2987.745 1005.387,2987.492 C1010.559,2987.309 1015.841,2984.814 1020.651,2982.481 C1022.598,2981.538 1023.304,2978.195 1024.801,2976.106 C1025.833,2974.67 1027.036,2973.072 1028.55,2972.33 C1031.705,2970.778 1035.134,2969.796 1038.417,2968.488 C1044.479,2966.076 1050.348,2962.979 1056.599,2961.285 C1066.427,2958.621 1074.843,2951.25 1085.913,2952.605 C1087.578,2952.809 1089.403,2951.182 1091.231,2950.698 C1093.239,2950.168 1095.413,2949.463 1097.38,2949.751 C1101.718,2950.381 1105.309,2948.951 1109.198,2947.309 C1117.78,2943.625 1126.175,2939.487 1135.108,2936.701 C1136.9,2930.019 1136.122,2933.045 1137.474,2927.63 C1138.39,2923.498 1140.727,2919.347 1136.514,2915.339 C1134.135,2913.077 1135.277,2909.613 1136.327,2907.131 C1137.959,2903.273 1138.154,2899.38 1138.618,2895.364 C1139.116,2891.051 1140.604,2886.85 1141.703,2882.611 C1142.994,2877.63 1144.118,2872.593 1145.713,2867.709 C1147.132,2863.36 1149.012,2859.15 1150.872,2854.96 C1151.341,2853.903 1152.507,2853.155 1153.885,2851.705 C1155.694,2859.085 1148.891,2864.763 1151.802,2872.201 C1152.702,2870.943 1153.286,2870.423 1153.504,2869.779 C1157.843,2856.963 1162.239,2844.165 1166.388,2831.287 C1167.782,2826.958 1168.162,2822.292 1169.661,2818.009 C1171.094,2813.546 1172.73,2808.987 1176.635,2806.119 C1176.564,2805.457 1176.349,2803.479 1176.343,2803.167 C1176.338,2802.854 1176.435,2802.548 1176.482,2802.238 C1177.824,2797.85 1179.327,2793.502 1181.008,2789.234 C1181.477,2788.043 1182.766,2787.177 1184.419,2785.337 C1185.205,2793.004 1179.331,2798.408 1181.407,2806.103 C1182.941,2804.403 1184.029,2803.628 1184.528,2802.574 C1187.221,2796.883 1189.863,2791.163 1192.319,2785.366 C1193.359,2782.91 1193.818,2780.216 1194.688,2777.679 C1195.555,2775.148 1196.823,2773.254 1199.41,2771.616 C1203.413,2769.083 1206.985,2770.144 1210.779,2771.069 C1212.024,2771.373 1213.126,2772.266 1214.8,2773.16 C1215.432,2772.147 1216.02,2771.204 1216.625,2770.235 C1217.415,2770.729 1217.994,2770.927 1218.329,2771.329 C1219.425,2772.643 1220.232,2774.284 1221.534,2775.311 C1222.619,2776.168 1224.502,2777.007 1225.554,2776.605 C1226.435,2776.269 1227.072,2774.115 1227.037,2772.787 C1226.948,2769.376 1227.837,2766.419 1230.123,2763.288 C1231.297,2764.361 1232.327,2765.302 1233.322,2766.21 C1233.785,2764.965 1234.272,2763.656 1234.79,2762.269 C1235.659,2762.402 1236.321,2762.308 1236.699,2762.592 C1239.531,2764.725 1241.03,2764.868 1241.926,2762.327 C1243.261,2758.543 1245.222,2755.915 1249.348,2755.243 C1249.856,2755.16 1250.504,2754.72 1250.722,2754.269 C1252.746,2750.062 1256.301,2749.104 1260.626,2748.751 C1262.582,2748.59 1265.11,2747.02 1266.097,2745.338 C1267.706,2742.596 1269.241,2740.266 1272.235,2738.835 C1273.684,2738.143 1274.655,2736.447 1275.435,2735.632 C1280.743,2734.251 1286.052,2732.871 1291.361,2731.491 z M1148.842,2874.709 C1148.334,2874.728 1147.855,2875.586 1147.363,2876.068 C1148.203,2876.61 1148.998,2877.28 1149.915,2877.606 C1150.146,2877.689 1150.768,2876.672 1151.572,2875.742 C1150.373,2875.25 1149.597,2874.683 1148.842,2874.709 L1148.842,2874.709 z M1176.756,2806.207 L1176.756,2806.207 C1173.942,2820.723 1175.353,2813.439 1172.524,2828.058 C1175.591,2829.102 1175.995,2827.208 1176.025,2825.831 C1176.137,2820.754 1177.236,2816.099 1179.807,2811.607 C1181.657,2808.42 1179.664,2807.135 1176.756,2806.207 z" transform="translate(-936.23 -2731.491)"/></g></svg>